<?xml version="1.0" encoding="UTF-8" ?>
<svg version="1.1" width="63" height="7" xmlns="http://www.w3.org/2000/svg" shape-rendering="crispEdges">
<rect x="1" y="0" width="5" height="2" fill="#AC3232" />
<rect x="8" y="0" width="4" height="2" fill="#FFFFFF" />
<rect x="15" y="0" width="1" height="2" fill="#FFFFFF" />
<rect x="18" y="0" width="1" height="2" fill="#FFFFFF" />
<rect x="21" y="0" width="6" height="2" fill="#FFFFFF" />
<rect x="28" y="0" width="5" height="2" fill="#639BFF" />
<rect x="35" y="0" width="6" height="2" fill="#FFFFFF" />
<rect x="43" y="0" width="4" height="2" fill="#FFFFFF" />
<rect x="49" y="0" width="2" height="7" fill="#FFFFFF" />
<rect x="57" y="0" width="5" height="2" fill="#FFFFFF" />
<rect x="0" y="1" width="1" height="5" fill="#AC3232" />
<rect x="7" y="1" width="1" height="6" fill="#FFFFFF" />
<rect x="12" y="1" width="1" height="6" fill="#FFFFFF" />
<rect x="14" y="1" width="1" height="6" fill="#FFFFFF" />
<rect x="16" y="1" width="2" height="4" fill="#FFFFFF" />
<rect x="19" y="1" width="1" height="6" fill="#FFFFFF" />
<rect x="42" y="1" width="1" height="6" fill="#FFFFFF" />
<rect x="47" y="1" width="1" height="6" fill="#FFFFFF" />
<rect x="56" y="1" width="1" height="3" fill="#FFFFFF" />
<rect x="1" y="2" width="1" height="5" fill="#AC3232" />
<rect x="8" y="2" width="1" height="5" fill="#FFFFFF" />
<rect x="11" y="2" width="1" height="5" fill="#FFFFFF" />
<rect x="21" y="2" width="2" height="5" fill="#FFFFFF" />
<rect x="28" y="2" width="2" height="5" fill="#639BFF" />
<rect x="32" y="2" width="2" height="3" fill="#639BFF" />
<rect x="35" y="2" width="2" height="5" fill="#FFFFFF" />
<rect x="43" y="2" width="1" height="5" fill="#FFFFFF" />
<rect x="46" y="2" width="1" height="5" fill="#FFFFFF" />
<rect x="57" y="2" width="1" height="2" fill="#FFFFFF" />
<rect x="3" y="3" width="2" height="1" fill="#AC3232" />
<rect x="9" y="3" width="2" height="1" fill="#FFFFFF" />
<rect x="23" y="3" width="3" height="1" fill="#FFFFFF" />
<rect x="37" y="3" width="3" height="1" fill="#FFFFFF" />
<rect x="44" y="3" width="2" height="1" fill="#FFFFFF" />
<rect x="58" y="3" width="3" height="1" fill="#FFFFFF" />
<rect x="4" y="4" width="2" height="2" fill="#AC3232" />
<rect x="60" y="4" width="2" height="2" fill="#FFFFFF" />
<rect x="2" y="5" width="2" height="2" fill="#AC3232" />
<rect x="23" y="5" width="4" height="2" fill="#FFFFFF" />
<rect x="30" y="5" width="3" height="2" fill="#639BFF" />
<rect x="37" y="5" width="4" height="2" fill="#FFFFFF" />
<rect x="51" y="5" width="4" height="2" fill="#FFFFFF" />
<rect x="56" y="5" width="4" height="2" fill="#FFFFFF" />
<rect x="4" y="6" width="1" height="1" fill="#AC3232" />
<rect x="60" y="6" width="1" height="1" fill="#FFFFFF" />
</svg>